<svg xmlns="http://www.w3.org/2000/svg" width="528" height="143" viewBox="-6 -2.8 528 143" role="img" aria-label="chatgpt-auth-for-responses"><path fill="#e6edf3" d="M20.56 60.32Q14.8 60.32 10.12 57.92Q5.44 55.52 2.72 50.96Q0 46.4 0 39.92L0 38.8Q0 32.32 2.72 27.76Q5.44 23.2 10.12 20.8Q14.8 18.4 20.56 18.4Q26.24 18.4 30.32 20.4Q34.4 22.4 36.92 25.88Q39.44 29.36 40.24 33.76L30.48 35.84Q30.16 33.44 29.04 31.52Q27.92 29.6 25.88 28.48Q23.84 27.36 20.8 27.36Q17.76 27.36 15.32 28.68Q12.88 30 11.48 32.6Q10.08 35.2 10.08 38.96L10.08 39.76Q10.08 43.52 11.48 46.12Q12.88 48.72 15.32 50.04Q17.76 51.36 20.8 51.36Q25.36 51.36 27.72 49Q30.08 46.64 30.72 42.8L40.48 45.12Q39.44 49.36 36.92 52.84Q34.4 56.32 30.32 58.32Q26.24 60.32 20.56 60.32ZM48.8 59.2L48.8 3.2L58.88 3.2L58.88 24.4L60.32 24.4Q60.96 23.12 62.32 21.84Q63.68 20.56 65.96 19.72Q68.24 18.88 71.76 18.88Q76.4 18.88 79.88 21Q83.36 23.12 85.28 26.84Q87.2 30.56 87.2 35.52L87.2 59.2L77.12 59.2L77.12 36.32Q77.12 31.84 74.92 29.6Q72.72 27.36 68.64 27.36Q64 27.36 61.44 30.44Q58.88 33.52 58.88 39.04L58.88 59.2ZM110.4 60.32Q106.16 60.32 102.8 58.84Q99.44 57.36 97.48 54.52Q95.52 51.68 95.52 47.6Q95.52 43.52 97.48 40.76Q99.44 38 102.92 36.6Q106.4 35.2 110.88 35.2L121.76 35.2L121.76 32.96Q121.76 30.16 120 28.36Q118.24 26.56 114.4 26.56Q110.64 26.56 108.8 28.28Q106.96 30 106.4 32.72L97.12 29.6Q98.08 26.56 100.2 24.04Q102.32 21.52 105.88 19.96Q109.44 18.4 114.56 18.4Q122.4 18.4 126.96 22.32Q131.52 26.24 131.52 33.68L131.52 48.48Q131.52 50.88 133.76 50.88L136.96 50.88L136.96 59.2L130.24 59.2Q127.28 59.2 125.36 57.76Q123.44 56.32 123.44 53.92L123.44 53.84L121.92 53.84Q121.6 54.8 120.48 56.36Q119.36 57.92 116.96 59.12Q114.56 60.32 110.4 60.32ZM112.16 52.16Q116.4 52.16 119.08 49.8Q121.76 47.44 121.76 43.52L121.76 42.72L111.6 42.72Q108.8 42.72 107.2 43.92Q105.6 45.12 105.6 47.28Q105.6 49.44 107.28 50.8Q108.96 52.16 112.16 52.16ZM156.64 59.2Q152.72 59.2 150.28 56.76Q147.84 54.32 147.84 50.24L147.84 27.84L137.92 27.84L137.92 19.52L147.84 19.52L147.84 7.2L157.92 7.2L157.92 19.52L168.8 19.52L168.8 27.84L157.92 27.84L157.92 48.48Q157.92 50.88 160.16 50.88L167.84 50.88L167.84 59.2ZM174.56 39.52L174.56 38.24Q174.56 32 177.04 27.56Q179.52 23.12 183.64 20.76Q187.76 18.4 192.64 18.4Q198.08 18.4 200.88 20.32Q203.68 22.24 204.96 24.32L206.4 24.32L206.4 19.52L216.32 19.52L216.32 66.24Q216.32 70.32 213.92 72.76Q211.52 75.2 207.52 75.2L180.96 75.2L180.96 66.4L204 66.4Q206.24 66.4 206.24 64L206.24 53.68L204.8 53.68Q204 54.96 202.56 56.28Q201.12 57.6 198.72 58.48Q196.32 59.36 192.64 59.36Q187.76 59.36 183.64 57Q179.52 54.64 177.04 50.2Q174.56 45.76 174.56 39.52ZM195.52 50.56Q200.16 50.56 203.28 47.6Q206.4 44.64 206.4 39.28L206.4 38.48Q206.4 33.04 203.32 30.12Q200.24 27.2 195.52 27.2Q190.88 27.2 187.76 30.12Q184.64 33.04 184.64 38.48L184.64 39.28Q184.64 44.64 187.76 47.6Q190.88 50.56 195.52 50.56ZM227.52 75.2L227.52 19.52L237.44 19.52L237.44 24.32L238.88 24.32Q240.24 22 243.12 20.2Q246 18.4 251.36 18.4Q256.16 18.4 260.24 20.76Q264.32 23.12 266.8 27.68Q269.28 32.24 269.28 38.72L269.28 40Q269.28 46.48 266.8 51.04Q264.32 55.6 260.24 57.96Q256.16 60.32 251.36 60.32Q247.76 60.32 245.32 59.48Q242.88 58.64 241.4 57.32Q239.92 56 239.04 54.64L237.6 54.64L237.6 75.2ZM248.32 51.52Q253.04 51.52 256.12 48.52Q259.2 45.52 259.2 39.76L259.2 38.96Q259.2 33.2 256.08 30.2Q252.96 27.2 248.32 27.2Q243.68 27.2 240.56 30.2Q237.44 33.2 237.44 38.96L237.44 39.76Q237.44 45.52 240.56 48.52Q243.68 51.52 248.32 51.52ZM292.48 59.2Q288.56 59.2 286.12 56.76Q283.68 54.32 283.68 50.24L283.68 27.84L273.76 27.84L273.76 19.52L283.68 19.52L283.68 7.2L293.76 7.2L293.76 19.52L304.64 19.52L304.64 27.84L293.76 27.84L293.76 48.48Q293.76 50.88 296 50.88L303.68 50.88L303.68 59.2Z"/><path fill="#9198a1" d="M312 43.36L312 34.24L335.68 34.24L335.68 43.36ZM7.07 124.88L7.07 107.02L1 107.02L1 103.19L7.07 103.19L7.07 98.44Q7.07 96.46 8.26 95.27Q9.45 94.08 11.43 94.08L17.02 94.08L17.02 97.91L12.88 97.91Q11.6 97.91 11.6 99.23L11.6 103.19L17.85 103.19L17.85 107.02L11.6 107.02L11.6 124.88ZM32.2 125.5Q28.94 125.5 26.41 124.15Q23.88 122.81 22.43 120.3Q20.98 117.8 20.98 114.36L20.98 113.7Q20.98 110.27 22.43 107.79Q23.88 105.3 26.41 103.94Q28.94 102.57 32.2 102.57Q35.45 102.57 38 103.94Q40.56 105.3 42.01 107.79Q43.46 110.27 43.46 113.7L43.46 114.36Q43.46 117.8 42.01 120.3Q40.56 122.81 38 124.15Q35.45 125.5 32.2 125.5ZM32.2 121.45Q35.19 121.45 37.06 119.53Q38.93 117.62 38.93 114.23L38.93 113.84Q38.93 110.45 37.08 108.53Q35.23 106.62 32.2 106.62Q29.25 106.62 27.38 108.53Q25.51 110.45 25.51 113.84L25.51 114.23Q25.51 117.62 27.38 119.53Q29.25 121.45 32.2 121.45ZM49.53 124.88L49.53 103.19L53.98 103.19L53.98 105.74L54.68 105.74Q55.21 104.38 56.37 103.74Q57.54 103.1 59.26 103.1L61.85 103.1L61.85 107.19L59.08 107.19Q56.88 107.19 55.47 108.4Q54.06 109.61 54.06 112.12L54.06 124.88ZM66.16 115.68L66.16 111.55L79.19 111.55L79.19 115.68ZM86.18 124.88L86.18 103.19L90.63 103.19L90.63 105.74L91.33 105.74Q91.86 104.38 93.03 103.74Q94.19 103.1 95.91 103.1L98.5 103.1L98.5 107.19L95.73 107.19Q93.53 107.19 92.12 108.4Q90.72 109.61 90.72 112.12L90.72 124.88ZM112.8 125.5Q109.5 125.5 107.04 124.11Q104.58 122.72 103.19 120.19Q101.8 117.66 101.8 114.32L101.8 113.79Q101.8 110.4 103.17 107.87Q104.53 105.34 106.97 103.96Q109.42 102.57 112.63 102.57Q115.75 102.57 118.11 103.96Q120.46 105.34 121.78 107.81Q123.1 110.27 123.1 113.57L123.1 115.29L106.42 115.29Q106.51 118.15 108.34 119.84Q110.16 121.54 112.89 121.54Q115.44 121.54 116.74 120.39Q118.04 119.25 118.74 117.75L122.48 119.69Q121.87 120.92 120.7 122.28Q119.54 123.65 117.64 124.57Q115.75 125.5 112.8 125.5ZM106.47 111.81L118.48 111.81Q118.3 109.35 116.72 107.96Q115.14 106.58 112.58 106.58Q110.03 106.58 108.43 107.96Q106.82 109.35 106.47 111.81ZM137.88 125.5Q133.75 125.5 131.02 123.65Q128.29 121.8 127.68 118.06L131.9 117.05Q132.25 118.85 133.09 119.91Q133.92 120.96 135.18 121.4Q136.43 121.84 137.88 121.84Q140.04 121.84 141.21 121.01Q142.37 120.17 142.37 118.85Q142.37 117.53 141.27 116.92Q140.17 116.3 138.02 115.9L136.52 115.64Q134.32 115.24 132.52 114.5Q130.71 113.75 129.66 112.43Q128.6 111.11 128.6 109.04Q128.6 105.96 130.89 104.27Q133.18 102.57 136.96 102.57Q140.61 102.57 142.97 104.22Q145.32 105.87 146.02 108.69L141.8 109.88Q141.4 107.9 140.13 107.08Q138.85 106.27 136.96 106.27Q135.11 106.27 134.06 106.95Q133 107.63 133 108.86Q133 110.18 134.03 110.8Q135.07 111.42 136.83 111.72L138.37 111.99Q140.7 112.38 142.64 113.09Q144.57 113.79 145.69 115.11Q146.82 116.43 146.82 118.63Q146.82 121.89 144.4 123.69Q141.98 125.5 137.88 125.5ZM152.54 133.68L152.54 103.19L156.98 103.19L156.98 106.31L157.68 106.31Q158.52 104.86 160.21 103.72Q161.91 102.57 165.08 102.57Q167.8 102.57 170.07 103.89Q172.34 105.21 173.72 107.7Q175.11 110.18 175.11 113.7L175.11 114.36Q175.11 117.88 173.74 120.37Q172.38 122.86 170.09 124.18Q167.8 125.5 165.08 125.5Q162.96 125.5 161.51 124.97Q160.06 124.44 159.18 123.63Q158.3 122.81 157.77 121.93L157.07 121.93L157.07 133.68ZM163.76 121.54Q166.75 121.54 168.64 119.64Q170.53 117.75 170.53 114.23L170.53 113.84Q170.53 110.36 168.62 108.47Q166.7 106.58 163.76 106.58Q160.85 106.58 158.94 108.47Q157.02 110.36 157.02 113.84L157.02 114.23Q157.02 117.75 158.94 119.64Q160.85 121.54 163.76 121.54ZM191.34 125.5Q188.09 125.5 185.56 124.15Q183.03 122.81 181.58 120.3Q180.12 117.8 180.12 114.36L180.12 113.7Q180.12 110.27 181.58 107.79Q183.03 105.3 185.56 103.94Q188.09 102.57 191.34 102.57Q194.6 102.57 197.15 103.94Q199.7 105.3 201.16 107.79Q202.61 110.27 202.61 113.7L202.61 114.36Q202.61 117.8 201.16 120.3Q199.7 122.81 197.15 124.15Q194.6 125.5 191.34 125.5ZM191.34 121.45Q194.34 121.45 196.21 119.53Q198.08 117.62 198.08 114.23L198.08 113.84Q198.08 110.45 196.23 108.53Q194.38 106.62 191.34 106.62Q188.4 106.62 186.53 108.53Q184.66 110.45 184.66 113.84L184.66 114.23Q184.66 117.62 186.53 119.53Q188.4 121.45 191.34 121.45ZM208.68 124.88L208.68 103.19L213.12 103.19L213.12 106.44L213.83 106.44Q214.44 105.12 216.03 103.98Q217.61 102.84 220.74 102.84Q223.2 102.84 225.11 103.94Q227.03 105.04 228.13 107.04Q229.23 109.04 229.23 111.86L229.23 124.88L224.7 124.88L224.7 112.21Q224.7 109.39 223.29 108.05Q221.88 106.71 219.42 106.71Q216.6 106.71 214.91 108.56Q213.21 110.4 213.21 113.92L213.21 124.88ZM245.07 125.5Q240.93 125.5 238.2 123.65Q235.48 121.8 234.86 118.06L239.08 117.05Q239.44 118.85 240.27 119.91Q241.11 120.96 242.36 121.4Q243.62 121.84 245.07 121.84Q247.22 121.84 248.39 121.01Q249.56 120.17 249.56 118.85Q249.56 117.53 248.46 116.92Q247.36 116.3 245.2 115.9L243.7 115.64Q241.5 115.24 239.7 114.5Q237.9 113.75 236.84 112.43Q235.78 111.11 235.78 109.04Q235.78 105.96 238.07 104.27Q240.36 102.57 244.14 102.57Q247.8 102.57 250.15 104.22Q252.5 105.87 253.21 108.69L248.98 109.88Q248.59 107.9 247.31 107.08Q246.04 106.27 244.14 106.27Q242.3 106.27 241.24 106.95Q240.18 107.63 240.18 108.86Q240.18 110.18 241.22 110.8Q242.25 111.42 244.01 111.72L245.55 111.99Q247.88 112.38 249.82 113.09Q251.76 113.79 252.88 115.11Q254 116.43 254 118.63Q254 121.89 251.58 123.69Q249.16 125.5 245.07 125.5ZM269.66 125.5Q266.36 125.5 263.9 124.11Q261.44 122.72 260.05 120.19Q258.66 117.66 258.66 114.32L258.66 113.79Q258.66 110.4 260.03 107.87Q261.39 105.34 263.83 103.96Q266.28 102.57 269.49 102.57Q272.61 102.57 274.97 103.96Q277.32 105.34 278.64 107.81Q279.96 110.27 279.96 113.57L279.96 115.29L263.28 115.29Q263.37 118.15 265.2 119.84Q267.02 121.54 269.75 121.54Q272.3 121.54 273.6 120.39Q274.9 119.25 275.6 117.75L279.34 119.69Q278.73 120.92 277.56 122.28Q276.4 123.65 274.5 124.57Q272.61 125.5 269.66 125.5ZM263.33 111.81L275.34 111.81Q275.16 109.35 273.58 107.96Q272 106.58 269.44 106.58Q266.89 106.58 265.29 107.96Q263.68 109.35 263.33 111.81ZM294.74 125.5Q290.61 125.5 287.88 123.65Q285.15 121.8 284.54 118.06L288.76 117.05Q289.11 118.85 289.95 119.91Q290.78 120.96 292.04 121.4Q293.29 121.84 294.74 121.84Q296.9 121.84 298.07 121.01Q299.23 120.17 299.23 118.85Q299.23 117.53 298.13 116.92Q297.03 116.3 294.88 115.9L293.38 115.64Q291.18 115.24 289.38 114.5Q287.57 113.75 286.52 112.43Q285.46 111.11 285.46 109.04Q285.46 105.96 287.75 104.27Q290.04 102.57 293.82 102.57Q297.47 102.57 299.83 104.22Q302.18 105.87 302.88 108.69L298.66 109.88Q298.26 107.9 296.99 107.08Q295.71 106.27 293.82 106.27Q291.97 106.27 290.92 106.95Q289.86 107.63 289.86 108.86Q289.86 110.18 290.89 110.8Q291.93 111.42 293.69 111.72L295.23 111.99Q297.56 112.38 299.5 113.09Q301.43 113.79 302.55 115.11Q303.68 116.43 303.68 118.63Q303.68 121.89 301.26 123.69Q298.84 125.5 294.74 125.5Z"/><path fill="#3fcf9e" d="M359.04 60.32Q354.8 60.32 351.44 58.84Q348.08 57.36 346.12 54.52Q344.16 51.68 344.16 47.6Q344.16 43.52 346.12 40.76Q348.08 38 351.56 36.6Q355.04 35.2 359.52 35.2L370.4 35.2L370.4 32.96Q370.4 30.16 368.64 28.36Q366.88 26.56 363.04 26.56Q359.28 26.56 357.44 28.28Q355.6 30 355.04 32.72L345.76 29.6Q346.72 26.56 348.84 24.04Q350.96 21.52 354.52 19.96Q358.08 18.4 363.2 18.4Q371.04 18.4 375.6 22.32Q380.16 26.24 380.16 33.68L380.16 48.48Q380.16 50.88 382.4 50.88L385.6 50.88L385.6 59.2L378.88 59.2Q375.92 59.2 374 57.76Q372.08 56.32 372.08 53.92L372.08 53.84L370.56 53.84Q370.24 54.8 369.12 56.36Q368 57.92 365.6 59.12Q363.2 60.32 359.04 60.32ZM360.8 52.16Q365.04 52.16 367.72 49.8Q370.4 47.44 370.4 43.52L370.4 42.72L360.24 42.72Q357.44 42.72 355.84 43.92Q354.24 45.12 354.24 47.28Q354.24 49.44 355.92 50.8Q357.6 52.16 360.8 52.16ZM406.96 59.84Q402.32 59.84 398.84 57.72Q395.36 55.6 393.44 51.84Q391.52 48.08 391.52 43.2L391.52 19.52L401.6 19.52L401.6 42.4Q401.6 46.88 403.8 49.12Q406 51.36 410.08 51.36Q414.72 51.36 417.28 48.28Q419.84 45.2 419.84 39.68L419.84 19.52L429.92 19.52L429.92 59.2L420 59.2L420 54L418.56 54Q417.6 56 414.96 57.92Q412.32 59.84 406.96 59.84ZM456.32 59.2Q452.4 59.2 449.96 56.76Q447.52 54.32 447.52 50.24L447.52 27.84L437.6 27.84L437.6 19.52L447.52 19.52L447.52 7.2L457.6 7.2L457.6 19.52L468.48 19.52L468.48 27.84L457.6 27.84L457.6 48.48Q457.6 50.88 459.84 50.88L467.52 50.88L467.52 59.2ZM477.6 59.2L477.6 3.2L487.68 3.2L487.68 24.4L489.12 24.4Q489.76 23.12 491.12 21.84Q492.48 20.56 494.76 19.72Q497.04 18.88 500.56 18.88Q505.2 18.88 508.68 21Q512.16 23.12 514.08 26.84Q516 30.56 516 35.52L516 59.2L505.92 59.2L505.92 36.32Q505.92 31.84 503.72 29.6Q501.52 27.36 497.44 27.36Q492.8 27.36 490.24 30.44Q487.68 33.52 487.68 39.04L487.68 59.2Z"/></svg>
